#!OML:ASF H:\Terrain\Patient Classification 1\Walking\liu\liu.ASF
:FULLY-SPECIFIED
:DEGREES
65
root 13.625296 24.459900 -40.983150 7.799835 -17.685301 1.295058
lowerback -7.384155 0.615873 -3.874635
upperback -3.431175 0.952697 3.682350
thorax 0.522924 0.517839 6.021600
lowerneck -33.690300 -5.889660 -17.410648
upperneck 26.934750 -6.836055 19.205700
head 14.993940 -2.180130 8.733060
rclavicle -0.000000 -0.000000
rhumerus -64.863754 19.587450 -136.281158
rradius 57.113998
rwrist -29.373150
rhand -44.698200 -39.200699
rfingers 10.687531
rthumb -4.684725 -84.136047
lclavicle -0.000000 -0.000000
lhumerus -58.674900 -9.301440 133.028549
lradius 31.574249
lwrist -4.887960
lhand 1.262727 -26.385149
lfingers 10.687531
lthumb 39.594601 15.888451
rfemur -6.379470 -1.122211 23.086950
rtibia 85.986298
rfoot 9.545685 -15.755400
rtoes -6.387600
lfemur -39.943802 11.523240 -36.307949
ltibia 48.391052
lfoot -15.652201 11.648325
ltoes -5.212410
66
root 13.654995 24.501900 -40.807198 7.830735 -17.403000 0.926163
lowerback -7.485450 0.474684 -3.381615
upperback -3.277770 0.741381 3.808560
thorax 0.760125 0.402820 5.864565
lowerneck -33.535500 -6.055755 -17.394899
upperneck 26.525852 -7.025940 19.088551
head 14.844524 -2.285055 8.640554
rclavicle 0.000000 -0.000000
rhumerus -64.569298 19.348200 -135.929855
rradius 57.164551
rwrist -29.526600
rhand -44.751152 -38.453102
rfingers 10.687531
rthumb -4.735890 -83.387550
lclavicle 0.000000 -0.000000
lhumerus -57.497101 -8.907840 132.474304
lradius 31.741798
lwrist -5.726100
lhand 1.008088 -26.567249
lfingers 10.687531
lthumb 39.350849 15.742800
rfemur -8.197710 -1.241956 23.870701
rtibia 87.777596
rfoot 7.547145 -16.126350
rtoes -3.428610
lfemur -38.767799 11.046480 -36.023849
ltibia 47.464500
lfoot -15.452250 11.957385
ltoes -6.552360
67
root 13.679160 24.531000 -40.650452 7.888140 -17.001150 0.867988
lowerback -7.682355 0.296156 -3.289770
upperback -3.034425 0.498807 3.863565
thorax 1.141230 0.271188 5.859720
lowerneck -33.849751 -6.109110 -17.314049
upperneck 26.491350 -7.031340 18.841801
head 14.880075 -2.299560 8.534430
rclavicle -0.000000 0.000000
rhumerus -64.180351 19.384501 -135.683701
rradius 57.335251
rwrist -29.792999
rhand -44.738251 -38.504852
rfingers 10.687531
rthumb -4.723440 -83.439598
lclavicle -0.000000 0.000000
lhumerus -56.219547 -10.465425 132.876007
lradius 32.137199
lwrist -4.573005
lhand 0.761381 -26.045700
lfingers 10.687531
lthumb 39.114750 16.299301
rfemur -10.201650 -1.483796 24.400349
rtibia 89.430603
rfoot 5.812290 -16.019550
rtoes -3.925605
lfemur -37.785751 10.636785 -36.078148
ltibia 46.580250
lfoot -15.328800 12.047851
ltoes -6.149925
68
root 13.705170 24.557550 -40.480350 7.999155 -16.490850 1.303427
lowerback -7.911750 0.067365 -3.736860
upperback -3.051000 0.219289 3.823665
thorax 1.273704 0.130701 6.057480
lowerneck -33.929848 -5.930925 -17.419199
upperneck 26.793749 -6.789345 18.947701
head 14.973030 -2.180715 8.641500
rclavicle -0.000000 -0.000000
rhumerus -64.236900 19.392300 -135.511047
rradius 57.556351
rwrist -29.903549
rhand -45.002701 -39.289650
rfingers 10.687531
rthumb -4.978860 -84.220650
lclavicle -0.000000 -0.000000
lhumerus -55.391251 -12.283890 133.485138
lradius 32.453102
lwrist -2.773905
lhand -0.001363 -26.341799
lfingers 10.687531
lthumb 38.384251 16.109550
rfemur -12.191010 -1.893420 24.326550
rtibia 90.903603
rfoot 4.133250 -15.360750
rtoes -6.835125
lfemur -36.909599 10.069065 -36.719250
ltibia 45.781052
lfoot -15.370500 12.086085
ltoes -6.322395
69
root 13.731359 24.589199 -40.305599 8.088810 -15.908401 1.602960
lowerback -8.008064 -0.173212 -3.978885
upperback -3.153195 -0.086306 3.758175
thorax 1.248917 -0.019591 6.108780
lowerneck -33.930298 -5.808300 -17.361300
upperneck 27.208950 -6.686910 18.998400
head 15.105751 -2.123640 8.682165
rclavicle -0.000000 -0.000000
rhumerus -64.449448 19.150801 -135.318298
rradius 57.933002
rwrist -29.872952
rhand -45.100052 -39.188248
rfingers 10.687531
rthumb -5.072835 -84.117599
lclavicle -0.000000 -0.000000
lhumerus -54.402901 -12.817215 133.251007
lradius 32.426701
lwrist -2.897325
lhand -0.645502 -27.472950
lfingers 10.687531
lthumb 37.767151 15.066150
rfemur -14.065784 -2.176410 24.455400
rtibia 92.163605
rfoot 1.782765 -15.035399
rtoes -9.592245
lfemur -36.087898 9.445065 -37.211548
ltibia 45.077698
lfoot -15.466350 12.199860
ltoes -7.362450
70
root 13.759621 24.608700 -40.144051 7.881660 -15.382050 1.471015
lowerback -7.773420 -0.335726 -3.686790
upperback -3.014670 -0.321400 3.751020
thorax 1.281616 -0.140946 5.921235
lowerneck -34.227753 -5.827935 -17.323349
upperneck 27.737850 -6.758685 19.061550
head 15.359400 -2.137815 8.711220
rclavicle -0.000000 -0.000000
rhumerus -64.337402 18.971251 -135.165146
rradius 58.118248
rwrist -30.188698
rhand -45.462601 -37.127701
rfingers 10.687531
rthumb -5.422950 -82.051353
lclavicle -0.000000 -0.000000
lhumerus -53.046902 -13.437690 132.914398
lradius 32.476799
lwrist -3.285990
lhand -1.015458 -27.388350
lfingers 10.687531
lthumb 37.412697 15.200251
rfemur -15.658650 -2.191905 25.132202
rtibia 93.267448
rfoot -0.881873 -15.817200
rtoes -12.721754
lfemur -34.980598 8.810520 -37.146599
ltibia 44.464500
lfoot -15.739950 12.419491
ltoes -7.821810
71
root 13.787100 24.623400 -39.973053 7.633471 -15.196200 1.332429
lowerback -7.614960 -0.383297 -3.485370
upperback -2.852130 -0.399411 3.875610
thorax 1.367288 -0.184158 5.931825
lowerneck -33.988052 -5.949375 -17.700001
upperneck 27.629852 -6.896010 19.387051
head 15.315900 -2.199210 8.871405
rclavicle 0.000000 0.000000
rhumerus -64.245598 19.064548 -134.906250
rradius 58.054054
rwrist -30.693300
rhand -45.798599 -35.185051
rfingers 10.687531
rthumb -5.747385 -80.102997
lclavicle 0.000000 0.000000
lhumerus -51.939301 -13.842285 132.826355
lradius 32.991299
lwrist -3.279090
lhand -0.893438 -26.428951
lfingers 10.687531
lthumb 37.529549 16.143301
rfemur -17.128950 -1.837875 25.713001
rtibia 94.200745
rfoot -4.015815 -16.268848
rtoes -14.501535
lfemur -33.789902 8.457600 -37.092148
ltibia 44.010448
lfoot -16.268551 12.655920
ltoes -7.797570
72
root 13.801544 24.636000 -39.817501 7.822380 -14.924759 1.721430
lowerback -7.741275 -0.549049 -4.029135
upperback -3.008565 -0.591873 3.919455
thorax 1.296001 -0.275225 6.274770
lowerneck -33.660900 -5.938920 -17.713350
upperneck 27.581699 -6.890190 19.310551
head 15.235800 -2.216475 8.840970
rclavicle -0.000000 -0.000000
rhumerus -64.639198 19.245899 -134.726563
rradius 58.430405
rwrist -31.060650
rhand -45.586800 -34.563751
rfingers 10.687531
rthumb -5.542785 -79.485298
lclavicle -0.000000 -0.000000
lhumerus -51.195602 -14.018385 132.678604
lradius 33.728851
lwrist -3.236460
lhand -0.677742 -25.886999
lfingers 10.687531
lthumb 37.736248 16.656300
rfemur -19.221149 -1.594185 25.770899
rtibia 94.969048
rfoot -6.335565 -16.080000
rtoes -15.574501
lfemur -33.241203 8.286571 -37.675652
ltibia 43.576950
lfoot -16.612801 12.654930
ltoes -7.372065
73
root 13.814880 24.637051 -39.673050 7.990395 -14.378176 2.109525
lowerback -7.805340 -0.765318 -4.472025
upperback -3.126960 -0.856215 3.872400
thorax 1.237112 -0.403068 6.461655
lowerneck -33.498749 -5.835810 -17.285101
upperneck 27.657600 -6.795555 18.818550
head 15.194250 -2.202165 8.598075
rclavicle -0.000000 0.000000
rhumerus -64.966499 19.248301 -134.626648
rradius 58.989151
rwrist -31.464001
rhand -45.499500 -33.849602
rfingers 10.687531
rthumb -5.458560 -78.772499
lclavicle -0.000000 0.000000
lhumerus -50.215950 -14.867176 132.601654
lradius 34.230751
lwrist -2.725890
lhand -0.778755 -25.627350
lfingers 10.687531
lthumb 37.639500 16.929449
rfemur -21.341099 -1.661655 25.903650
rtibia 95.484154
rfoot -7.938870 -16.220551
rtoes -17.248951
lfemur -32.679150 7.995285 -38.243553
ltibia 43.054497
lfoot -16.885050 12.543810
ltoes -7.190775
74
root 13.841009 24.645000 -39.499348 7.650345 -14.115284 2.346975
lowerback -7.595145 -0.826285 -4.662720
upperback -3.023250 -0.933365 3.911055
thorax 1.236245 -0.442601 6.606360
lowerneck -32.949299 -5.791875 -17.088301
upperneck 27.267601 -6.723255 18.399899
head 14.928434 -2.218140 8.400135
rclavicle 0.000000 0.000000
rhumerus -65.032043 19.383749 -134.345245
rradius 59.200348
rwrist -31.840050
rhand -45.406349 -33.756901
rfingers 10.687531
rthumb -5.368545 -78.681450
lclavicle 0.000000 0.000000
lhumerus -49.059753 -15.311550 132.519745
lradius 34.434299
lwrist -2.663520
lhand -0.963553 -25.861500
lfingers 10.687531
lthumb 37.462502 16.720051
rfemur -22.690199 -1.626390 25.967098
rtibia 95.782204
rfoot -10.380660 -16.184849
rtoes -16.325550
lfemur -31.354500 7.523115 -38.610298
ltibia 42.493649
lfoot -17.589748 12.834809
ltoes -6.171975
